<svg width="69.599854" height="69.599854" viewBox="0 0 69.5999 69.5999" fill="none" xmlns="http://www.w3.org/2000/svg" xmlns:xlink="http://www.w3.org/1999/xlink">
	<desc>
			Created with Pixso.
	</desc>
	<defs>
		<filter id="filter_23_154_dd" x="0.000000" y="0.000000" width="69.599854" height="69.599854" filterUnits="userSpaceOnUse" color-interpolation-filters="sRGB">
			<feFlood flood-opacity="0" result="BackgroundImageFix"/>
			<feColorMatrix in="SourceAlpha" type="matrix" values="0 0 0 0 0 0 0 0 0 0 0 0 0 0 0 0 0 0 127 0" result="hardAlpha"/>
			<feOffset dx="0" dy="13"/>
			<feGaussianBlur stdDeviation="6"/>
			<feComposite in2="hardAlpha" operator="out" k2="-1" k3="1"/>
			<feColorMatrix type="matrix" values="0 0 0 0 0.066667 0 0 0 0 0.07451 0 0 0 0 0.13725 0 0 0 0.078 0"/>
			<feBlend mode="normal" in2="BackgroundImageFix" result="effect_dropShadow_1"/>
			<feBlend mode="normal" in="SourceGraphic" in2="effect_dropShadow_1" result="shape"/>
		</filter>
	</defs>
	<g filter="url(#filter_23_154_dd)">
		<circle id="Ellipse 176" cx="34.799927" cy="21.800049" r="16.799942" fill="#1A202C" fill-opacity="1.000000"/>
	</g>
	<path id="Vector" d="M34.79 5C25.52 5 17.99 12.52 17.99 21.8C17.99 31.07 25.52 38.6 34.79 38.6C44.07 38.6 51.59 31.07 51.59 21.8C51.59 12.52 44.07 5 34.79 5ZM38.77 16.6L36.25 16.6C35.95 16.6 35.62 17 35.62 17.52L35.62 19.35L38.78 19.35L38.3 21.95L35.62 21.95L35.62 29.75L32.64 29.75L32.64 21.95L29.93 21.95L29.93 19.35L32.64 19.35L32.64 17.82C32.64 15.62 34.16 13.84 36.25 13.84L38.77 13.84L38.77 16.6Z" fill="#FFFFFF" fill-opacity="1.000000" fill-rule="nonzero"/>
</svg>
