<svg width="69.599854" height="69.599854" viewBox="0 0 69.5999 69.5999" fill="none" xmlns="http://www.w3.org/2000/svg" xmlns:xlink="http://www.w3.org/1999/xlink">
	<desc>
			Created with Pixso.
	</desc>
	<defs>
		<filter id="filter_23_160_dd" x="0.000000" y="0.000000" width="69.599854" height="69.599854" filterUnits="userSpaceOnUse" color-interpolation-filters="sRGB">
			<feFlood flood-opacity="0" result="BackgroundImageFix"/>
			<feColorMatrix in="SourceAlpha" type="matrix" values="0 0 0 0 0 0 0 0 0 0 0 0 0 0 0 0 0 0 127 0" result="hardAlpha"/>
			<feOffset dx="0" dy="13"/>
			<feGaussianBlur stdDeviation="6"/>
			<feComposite in2="hardAlpha" operator="out" k2="-1" k3="1"/>
			<feColorMatrix type="matrix" values="0 0 0 0 0.066667 0 0 0 0 0.07451 0 0 0 0 0.13725 0 0 0 0.078 0"/>
			<feBlend mode="normal" in2="BackgroundImageFix" result="effect_dropShadow_1"/>
			<feBlend mode="normal" in="SourceGraphic" in2="effect_dropShadow_1" result="shape"/>
		</filter>
	</defs>
	<g filter="url(#filter_23_160_dd)">
		<circle id="Ellipse 178" cx="34.799927" cy="21.800049" r="16.799942" fill="#1A202C" fill-opacity="1.000000"/>
	</g>
	<path id="Vector" d="M40.04 21.8C40.04 23.19 39.49 24.52 38.51 25.51C37.52 26.49 36.19 27.05 34.79 27.05C33.4 27.05 32.07 26.49 31.08 25.51C30.1 24.52 29.54 23.19 29.54 21.8C29.54 21.5 29.58 21.2 29.63 20.92L27.79 20.92L27.79 27.91C27.79 28.4 28.19 28.8 28.68 28.8L40.92 28.8C41.15 28.79 41.37 28.7 41.54 28.54C41.7 28.37 41.79 28.15 41.79 27.91L41.79 20.92L39.96 20.92C40.01 21.2 40.04 21.5 40.04 21.8ZM34.79 25.3C35.25 25.29 35.71 25.2 36.13 25.03C36.56 24.85 36.95 24.59 37.27 24.27C37.6 23.94 37.85 23.56 38.03 23.13C38.2 22.71 38.3 22.25 38.29 21.79C38.29 21.33 38.2 20.88 38.03 20.45C37.85 20.03 37.59 19.64 37.27 19.32C36.94 18.99 36.56 18.74 36.13 18.56C35.71 18.38 35.25 18.29 34.79 18.29C33.86 18.29 32.97 18.66 32.32 19.32C31.66 19.98 31.29 20.87 31.29 21.8C31.29 22.72 31.66 23.61 32.32 24.27C32.98 24.93 33.87 25.3 34.79 25.3ZM38.99 18.12L41.09 18.12C41.23 18.12 41.37 18.06 41.47 17.97C41.56 17.87 41.62 17.73 41.62 17.6L41.62 15.5C41.62 15.36 41.56 15.22 41.47 15.12C41.37 15.03 41.23 14.97 41.09 14.97L38.99 14.97C38.86 14.97 38.72 15.03 38.62 15.12C38.52 15.22 38.47 15.36 38.47 15.5L38.47 17.6C38.47 17.88 38.71 18.12 38.99 18.12ZM34.79 5C30.34 5 26.07 6.77 22.92 9.92C19.76 13.07 17.99 17.34 17.99 21.8C17.99 26.25 19.76 30.52 22.92 33.67C26.07 36.83 30.34 38.6 34.79 38.6C37 38.6 39.19 38.16 41.22 37.32C43.26 36.47 45.11 35.23 46.67 33.67C48.23 32.11 49.47 30.26 50.32 28.22C51.16 26.19 51.59 24 51.59 21.8C51.59 19.59 51.16 17.4 50.32 15.37C49.47 13.33 48.23 11.48 46.67 9.92C45.11 8.36 43.26 7.12 41.22 6.27C39.19 5.43 37 5 34.79 5ZM43.54 28.6C43.54 29.67 42.67 30.55 41.6 30.55L27.99 30.55C26.92 30.55 26.04 29.67 26.04 28.6L26.04 14.99C26.04 13.92 26.92 13.05 27.99 13.05L41.6 13.05C42.67 13.05 43.54 13.92 43.54 14.99L43.54 28.6Z" fill="#FFFFFF" fill-opacity="1.000000" fill-rule="nonzero"/>
</svg>
